<?xml version="1.0" encoding="UTF-8"?><svg id="Layer_1" xmlns="http://www.w3.org/2000/svg" viewBox="0 0 380 435"><defs><style>.cls-1,.cls-2{fill:#fff;stroke-width:0px;}.cls-2{fill-rule:evenodd;}</style></defs><path class="cls-1" d="m114.57,217.21c19.92,0,39.45,5.83,56.04,16.6l-26.68,26.68c-9.09-4.49-19.1-6.83-29.36-6.83-36.64,0-66.45,29.81-66.45,66.45s29.81,66.45,66.45,66.45c14.03,0,27.44-4.32,38.8-12.5l.64-.46.56-.55,72.64-72.02,26.1,26.1-72.33,71.58c-18.53,15.67-42.1,24.3-66.4,24.3-56.74,0-102.89-46.16-102.89-102.89s46.16-102.89,102.89-102.89m0-10c-62.35,0-112.89,50.54-112.89,112.89s50.54,112.89,112.89,112.89c27.92,0,53.46-10.14,73.16-26.92l79.75-78.92-40.24-40.24-79.71,79.03c-9.27,6.68-20.65,10.62-32.95,10.62-31.17,0-56.45-25.27-56.45-56.45s25.27-56.45,56.45-56.45c11.47,0,22.13,3.42,31.04,9.3l40.32-40.33c-19.45-15.89-44.29-25.42-71.36-25.42h0Z"/><path class="cls-1" d="m265.43,217.21c56.74,0,102.89,46.16,102.89,102.89s-46.16,102.89-102.89,102.89c-19.92,0-39.45-5.83-56.04-16.6l26.68-26.68c9.09,4.49,19.1,6.83,29.36,6.83,36.64,0,66.45-29.81,66.45-66.45s-29.81-66.45-66.45-66.45c-14.03,0-27.44,4.32-38.8,12.5l-.64.46-.56.55-72.64,72.02-26.1-26.1,72.33-71.58c18.53-15.67,42.1-24.3,66.4-24.3m0-10c-27.91,0-53.46,10.14-73.16,26.92l-79.75,78.92,40.24,40.24,79.71-79.03c9.27-6.68,20.65-10.62,32.95-10.62,31.18,0,56.45,25.27,56.45,56.45s-25.27,56.45-56.45,56.45c-11.47,0-22.13-3.42-31.04-9.3l-40.33,40.33c19.45,15.89,44.29,25.42,71.36,25.42,62.35,0,112.89-50.54,112.89-112.89s-50.54-112.89-112.89-112.89h0Z"/><path class="cls-2" d="m346.43,296.21c-1.5-.46-3.06-.28-4.37.37l-15.88-15.14c1.12-1.71,1.6-3.85,1.16-6.02-.6-2.96-2.77-5.18-5.46-6.04l-1.31-23.47c1.88-.11,3.44-1.57,3.6-3.5.17-2.1-1.41-3.96-3.5-4.12-2.11-.18-3.96,1.39-4.13,3.5-.17,2.11,1.39,3.96,3.5,4.13.04,0,.08,0,.11,0l-1.2,23.1c-.37.02-.73.04-1.1.11-1.73.35-3.2,1.25-4.31,2.45l-34.87-27.52c.1-.49.1-1,0-1.52-.42-2.07-2.45-3.41-4.51-2.99-1.59.32-2.75,1.59-3.01,3.09l-47.06,8.09c.06-1.23-.09-2.49-.51-3.72-1.78-5.25-7.48-8.07-12.73-6.29-5.02,1.71-7.76,7.02-6.41,12.09l-26.46,16.3c-.98-1.74-2.83-2.93-4.96-2.91-3.13.01-5.66,2.57-5.63,5.7.02,2.36,1.47,4.37,3.53,5.21l-14.48,39.64c-.96-.2-1.95-.31-2.97-.3-7.73.06-13.94,6.36-13.88,14.08.06,7.74,6.35,13.94,14.09,13.89,3.87-.03,7.37-1.63,9.88-4.2l39.6,18.38c-.4.78-.64,1.66-.63,2.6,0,1,.29,1.93.76,2.74l-28.01,8.95c-.71-1.15-1.6-2.2-2.69-3.11-5.49-4.65-13.68-3.92-18.27,1.63-3.42,4.11-3.9,9.71-1.68,14.21l-15.11,10.89c-.69-.59-1.46-1.1-2.35-1.46-4.5-1.84-9.61.35-11.4,4.87-.2.51-.34,1.03-.45,1.56l-32.92-8.03c.12-3.36-1.51-6.69-4.62-8.51-3.58-2.1-7.96-1.54-10.93,1.03l-24.19-33.66c.04-.05.08-.1.11-.15,1.07-1.82.46-4.17-1.36-5.24-.51-.3-1.06-.45-1.61-.5l-11.64-51.15,9.02,51.88c-.4.3-.75.68-1.01,1.13-1.06,1.82-.45,4.18,1.37,5.23.92.54,1.98.65,2.93.4l25.96,32.44c-.59.58-1.14,1.21-1.57,1.95-2.64,4.51-1.14,10.29,3.37,12.94,4.33,2.54,9.83,1.2,12.59-2.92l34.38,4.19c-.3,3.75,1.79,7.43,5.44,8.91,4.5,1.81,9.59-.37,11.41-4.89,1.09-2.77.68-5.77-.83-8.1l13.71-12.24c.75,1.34,1.71,2.59,2.95,3.64,5.49,4.62,13.66,3.89,18.3-1.65,2.81-3.39,3.62-7.81,2.57-11.78l26.91-11.81c1.04,1.38,2.68,2.27,4.54,2.26,3.13-.03,5.64-2.57,5.64-5.71-.02-2.33-1.45-4.32-3.47-5.18l14.94-38.34c.48.06.97.09,1.46.09,6.57-.05,11.87-5.42,11.82-12.01-.05-6.57-5.43-11.87-12-11.82-3.78.03-7.13,1.82-9.3,4.58l-38.62-26.3c0-.1.03-.2.03-.31,0-.71-.16-1.39-.41-2.02l28.67-12.55c2.62,2.63,6.59,3.74,10.32,2.46,3.87-1.3,6.39-4.74,6.75-8.55l47.72-5.68c.85,1.21,2.35,1.87,3.89,1.56.58-.12,1.09-.37,1.53-.7l36.07,25.55c-1.49,1.81-2.22,4.22-1.71,6.7.89,4.37,5.13,7.18,9.5,6.3,1.98-.4,3.61-1.52,4.75-3l14.07,16.54c-.35.5-.66,1.04-.85,1.65-.82,2.58.26,5.28,2.44,6.67l-15.63,52.47,20.61-51.8c1.78-.57,3.27-1.95,3.87-3.86.97-3.11-.76-6.4-3.89-7.37Zm-124.44,20.52l-12.11,39.07c-.55-.17-1.12-.29-1.72-.28-1.86,0-3.49.92-4.51,2.31l-36.83-22.91c.4-1.19.64-2.45.71-3.76l48.01-21.25c1.13,3.07,3.48,5.54,6.46,6.82Zm-5.2-17.56c-1.28,1.91-2.03,4.22-2.01,6.7,0,.94.14,1.86.35,2.74l-49.28,15.17c-1.39-2.54-3.54-4.59-6.15-5.87l11.65-40.63c.55.18,1.13.3,1.75.29,1.5-.01,2.84-.62,3.85-1.57l39.84,23.18Z"/><path class="cls-1" d="m190,186.02c-23.84,0-45.36-9.87-60.74-25.72,6.64,27.42,31.28,47.8,60.74,47.8s54.1-20.39,60.74-47.8c-15.38,15.86-36.9,25.72-60.74,25.72Z"/><path class="cls-1" d="m190,96.65c18.84,0,34.16,15.33,34.16,34.16s-15.33,34.16-34.16,34.16-34.16-15.33-34.16-34.16,15.33-34.16,34.16-34.16m0-10c-24.39,0-44.16,19.77-44.16,44.16s19.77,44.16,44.16,44.16,44.16-19.77,44.16-44.16-19.77-44.16-44.16-44.16h0Z"/><path class="cls-1" d="m212.08,57.21c0-8.97-5.52-11.42-5.52-16.56,0-3.62,7.25-9.2-3.68-16.56,4.29,7.59-5.52,10.2-5.52,18.4,0,5.06,7.36,5.98,7.36,11.04,0,7.21-12.88,8.2-12.88-3.68s7.36-18.69,7.36-25.76c0-10.12-15.07-10.01-11.04-22.08-8.63,6.9,0,14.41,0,18.4s-5.52,8.97-5.52,12.88c0,5.41,5.52,7.13,5.52,16.56,0,11.88-12.88,10.89-12.88,3.68,0-5.06,7.36-5.98,7.36-11.04,0-8.2-9.81-10.81-5.52-18.4-10.93,7.36-3.68,12.94-3.68,16.56,0,5.14-5.52,7.59-5.52,16.56,0,12.2,9.89,18.4,22.08,18.4s22.08-6.21,22.08-18.4"/></svg>