<?xml version="1.0" encoding="UTF-8"?><svg id="Layer_1" xmlns="http://www.w3.org/2000/svg" viewBox="0 0 1920 435"><defs><style>.cls-1{fill:#fff;stroke-width:0px;}</style></defs><circle class="cls-1" cx="198.52" cy="130.95" r="44.09" transform="translate(-34.87 85.26) rotate(-22.33)"/><path class="cls-1" d="m198.52,186.07c-23.8,0-45.28-9.85-60.64-25.68,6.63,27.37,31.23,47.73,60.64,47.73s54.01-20.35,60.64-47.73c-15.36,15.83-36.84,25.68-60.64,25.68Z"/><path class="cls-1" d="m220.56,57.47c0-8.96-5.51-11.41-5.51-16.53,0-3.62,7.23-9.19-3.67-16.53,4.29,7.58-5.51,10.18-5.51,18.37,0,5.05,7.35,5.97,7.35,11.02,0,7.2-12.86,8.19-12.86-3.67s7.35-18.66,7.35-25.72c0-10.1-15.04-9.99-11.02-22.05-8.61,6.89,0,14.39,0,18.37s-5.51,8.96-5.51,12.86c0,5.4,5.51,7.12,5.51,16.53,0,11.86-12.86,10.87-12.86,3.67,0-5.05,7.35-5.97,7.35-11.02,0-8.19-9.8-10.79-5.51-18.37-10.91,7.35-3.67,12.92-3.67,16.53,0,5.13-5.51,7.58-5.51,16.53,0,12.18,9.87,18.37,22.05,18.37s22.05-6.2,22.05-18.37"/><polygon class="cls-1" points="203.27 318.93 189.75 324.92 178.13 336.44 182.73 339.3 203.27 318.93"/><polygon class="cls-1" points="224.05 298.33 219.33 295.59 198.59 316.15 209.45 312.81 224.05 298.33"/><path class="cls-1" d="m235.06,293.75c6.56-.05,11.93,5.24,11.98,11.8.05,6.58-5.23,11.94-11.8,11.99-.49,0-.98-.03-1.46-.09l-14.92,38.28c2.01.85,3.44,2.84,3.47,5.17,0,3.14-2.5,5.68-5.63,5.71-1.85.01-3.49-.88-4.53-2.26l-26.86,11.8c1.05,3.96.24,8.38-2.56,11.76-4.63,5.53-12.79,6.26-18.27,1.65-1.24-1.04-2.2-2.29-2.95-3.63l-13.69,12.22c1.5,2.32,1.92,5.32.82,8.09-1.81,4.52-6.9,6.7-11.39,4.88-3.64-1.48-5.73-5.15-5.43-8.89l-34.32-4.18c-2.76,4.12-8.25,5.45-12.57,2.92-4.5-2.64-6-8.41-3.37-12.92.44-.74.98-1.37,1.57-1.95l-25.92-32.39c-.96.26-2.01.15-2.93-.4-1.81-1.06-2.42-3.41-1.36-5.22.27-.45.62-.83,1.01-1.13l-9-51.8,11.62,51.06c.55.05,1.1.2,1.61.5,1.82,1.07,2.43,3.41,1.36,5.23-.03.06-.08.1-.11.15l24.15,33.6c2.97-2.56,7.34-3.12,10.91-1.03,3.1,1.82,4.73,5.14,4.61,8.49l32.86,8.02c.1-.52.24-1.04.44-1.55,1.79-4.51,6.89-6.7,11.38-4.86.88.35,1.65.87,2.34,1.45l15.09-10.87c-2.21-4.5-1.74-10.09,1.67-14.19,4.58-5.53,12.76-6.26,18.24-1.62,1.09.91,1.98,1.96,2.69,3.11l27.96-8.93c-.46-.81-.75-1.74-.75-2.74,0-.94.24-1.81.63-2.6l-32.81-15.23-22.73,22.54c-9.26,6.67-20.62,10.6-32.9,10.6-31.12,0-56.35-25.23-56.35-56.35s25.23-56.35,56.35-56.35c11.45,0,22.1,3.42,30.99,9.28l40.26-40.26c-19.41-15.86-44.22-25.38-71.24-25.38-62.25,0-112.71,50.46-112.71,112.71s50.46,112.71,112.71,112.71c27.87,0,53.37-10.12,73.04-26.88l79.62-78.79-40.18-40.18-10.93,10.83,1.02.69c2.16-2.76,5.51-4.55,9.28-4.57Z"/><path class="cls-1" d="m223.6,308.46c-.21-.88-.34-1.79-.35-2.73-.02-2.47.72-4.78,2-6.69l-1.21-.7-14.6,14.48,14.15-4.36Z"/><path class="cls-1" d="m212.14,357.6c1.02-1.39,2.65-2.3,4.51-2.31.6,0,1.17.11,1.72.28l12.09-39c-2.98-1.28-5.32-3.74-6.45-6.81l-20.73,9.17-20.55,20.37,29.41,18.3Z"/><path class="cls-1" d="m176.07,330.97c-.07,1.31-.3,2.56-.7,3.75l2.76,1.72,11.62-11.52-13.68,6.06Z"/><path class="cls-1" d="m185.48,275.89c-1,.96-2.35,1.56-3.84,1.57-.61,0-1.19-.12-1.74-.29l-11.63,40.57c2.6,1.27,4.75,3.32,6.14,5.86l24.19-7.45,20.74-20.56-33.85-19.7Z"/><path class="cls-1" d="m273.83,207.23c-27.87,0-53.37,10.12-73.04,26.88l-79.62,78.79,40.18,40.18,12.4-12.29-1.62-.75c-2.51,2.56-6,4.17-9.87,4.2-7.73.05-14.01-6.14-14.07-13.87-.06-7.7,6.14-14,13.86-14.05,1.02,0,2.01.1,2.97.3l14.45-39.57c-2.05-.84-3.51-2.85-3.52-5.2-.02-3.12,2.5-5.67,5.62-5.69,2.13-.02,3.97,1.17,4.95,2.91l26.41-16.28c-1.34-5.07,1.4-10.36,6.4-12.07,5.24-1.78,10.94,1.03,12.71,6.28.42,1.23.57,2.49.51,3.72l46.98-8.08c.26-1.51,1.41-2.77,3-3.09,2.06-.42,4.08.92,4.5,2.98.1.52.1,1.03,0,1.52l34.81,27.47c1.11-1.21,2.58-2.1,4.3-2.45.37-.07.73-.09,1.1-.11l1.2-23.06s-.07,0-.11,0c-2.1-.17-3.67-2.02-3.5-4.12.17-2.1,2.01-3.67,4.12-3.49,2.09.16,3.66,2.01,3.5,4.11-.16,1.93-1.72,3.39-3.6,3.49l1.31,23.43c2.69.86,4.85,3.07,5.46,6.03.44,2.16-.04,4.3-1.16,6.01l15.86,15.11c1.31-.65,2.86-.83,4.36-.37,3.12.97,4.85,4.25,3.88,7.35-.6,1.9-2.09,3.29-3.86,3.85l-20.58,51.72,15.6-52.38c-2.17-1.39-3.25-4.08-2.43-6.66.19-.61.49-1.15.85-1.65l-14.05-16.51c-1.14,1.48-2.77,2.59-4.74,3-4.36.88-8.59-1.92-9.48-6.29-.5-2.47.22-4.88,1.71-6.69l-36.01-25.51c-.44.33-.95.58-1.53.7-1.54.31-3.04-.35-3.89-1.56l-47.64,5.67c-.36,3.8-2.88,7.24-6.74,8.53-3.72,1.28-7.68.17-10.3-2.46l-28.62,12.53c.25.63.4,1.3.41,2.02,0,.11-.02.21-.03.31l33.1,22.54,20.6-20.43c9.26-6.67,20.62-10.6,32.9-10.6,31.12,0,56.35,25.23,56.35,56.35s-25.23,56.35-56.35,56.35c-11.45,0-22.1-3.42-30.99-9.28l-40.26,40.26c19.42,15.86,44.22,25.38,71.25,25.38,62.25,0,112.71-50.46,112.71-112.71s-50.46-112.71-112.71-112.71Z"/><path class="cls-1" d="m487.6,168.12v-56.64h33.98v13.59h-18.12v43.05h-15.86Z"/><path class="cls-1" d="m522.15,168.12l20.15-56.64h19.26l20.07,56.64h-16.99l-3.08-9.8h-19.26l-3.16,9.8h-16.99Zm29.79-43.62l-6.48,21.38h12.94l-6.46-21.38Z"/><path class="cls-1" d="m580.49,168.12l20.15-56.64h19.26l20.07,56.64h-16.99l-3.08-9.8h-19.26l-3.16,9.8h-16.99Zm29.79-43.62l-6.48,21.38h12.94l-6.46-21.38Z"/><path class="cls-1" d="m650.73,111.48h43.07v56.64h-15.86v-43.05h-11.34v22.32c0,2.65-.16,5.08-.47,7.29-.38,2.27-1.22,4.5-2.51,6.72-1.36,2.16-3.44,3.94-6.24,5.33-2.86,1.41-6.63,2.11-11.32,2.11-2.49,0-4.7-.24-6.64-.73v-13.59c1.46.38,2.62.57,3.48.57,2.37,0,4.12-.51,5.26-1.54,1.13-1.03,1.86-2.4,2.19-4.13.26-1.67.39-3.91.39-6.72v-31.24Z"/><path class="cls-1" d="m703.99,168.12v-56.64h15.86v22.09h8.34c14.83,0,22.25,5.74,22.25,17.23s-7.42,17.33-22.25,17.33h-24.2Zm15.86-11.32h6.8c2.53,0,4.5-.46,5.91-1.38,1.34-.92,2.01-2.46,2.01-4.62s-.67-3.68-2.01-4.6c-1.34-.87-3.31-1.3-5.91-1.3h-6.8v11.91Z"/><path class="cls-1" d="m753.83,179.44l8.5-24.91h14.17l-11.89,24.91h-10.77Z"/><path class="cls-1" d="m820.2,168.12v-43.05h-12.45v-13.59h40.78v13.59h-12.47v43.05h-15.86Z"/><path class="cls-1" d="m848.53,168.12l20.15-56.64h19.26l20.07,56.64h-16.99l-3.08-9.8h-19.26l-3.16,9.8h-16.99Zm29.79-43.62l-6.48,21.38h12.94l-6.46-21.38Z"/><path class="cls-1" d="m920.46,168.12v-43.05h-12.45v-13.59h40.78v13.59h-12.47v43.05h-15.86Z"/><path class="cls-1" d="m954.46,111.48h27.44c4.53,0,8.06.78,10.59,2.35,2.49,1.55,4.16,3.41,5.02,5.57.87,2.16,1.3,4.32,1.3,6.48,0,2.81-.84,5.24-2.51,7.29-1.67,2.09-3.78,3.6-6.32,4.52v.16c2.86.7,5.58,2.15,8.18,4.37,2.53,2.21,3.79,5.58,3.79,10.12,0,2.7-.65,5.24-1.94,7.61-1.24,2.44-3.26,4.4-6.07,5.91-2.75,1.51-6.26,2.27-10.53,2.27h-28.96v-56.64Zm15.86,22.32h6.64c4.85,0,7.27-1.78,7.27-5.33,0-1.67-.57-3.02-1.7-4.05-1.19-1.08-3.04-1.62-5.57-1.62h-6.64v11Zm0,23h7.29c5.66,0,8.5-2,8.5-6.01,0-3.77-2.83-5.65-8.5-5.65h-7.29v11.66Z"/><path class="cls-1" d="m1003.65,168.12l20.15-56.64h19.26l20.07,56.64h-16.99l-3.08-9.8h-19.26l-3.16,9.8h-16.99Zm29.79-43.62l-6.48,21.38h12.94l-6.46-21.38Z"/><path class="cls-1" d="m1067.66,168.12v-56.64h23.87c5.02,0,9.09,1,12.23,2.98,3.07,2,5.26,4.43,6.56,7.29,1.24,2.86,1.86,5.74,1.86,8.65s-.62,5.8-1.86,8.67c-1.31,2.91-3.49,5.36-6.56,7.35-3.13,2-7.21,3-12.23,3h-8v18.69h-15.86Zm15.86-44.18v13.02h4.53c5.18,0,7.76-2.19,7.76-6.56s-2.59-6.46-7.76-6.46h-4.53Z"/><path class="cls-1" d="m1115.57,179.44l8.5-24.91h14.17l-11.89,24.91h-10.77Z"/><path class="cls-1" d="m1215.77,165.53c-4.06,2.81-9.16,4.21-15.31,4.21-5.39,0-10.29-1.19-14.72-3.56-4.37-2.38-7.85-5.87-10.43-10.45-2.54-4.53-3.81-9.85-3.81-15.94,0-4.74.78-9,2.35-12.77,1.57-3.77,3.73-6.93,6.48-9.47,2.69-2.59,5.76-4.51,9.21-5.75,3.41-1.29,6.97-1.94,10.69-1.94,5.94,0,11.12,1.51,15.55,4.52v16.44c-3.83-4.53-8.31-6.8-13.43-6.8-2.92,0-5.49.73-7.69,2.18-2.21,1.46-3.91,3.42-5.11,5.9-1.13,2.49-1.7,5.22-1.7,8.18,0,3.19.65,5.94,1.95,8.26,1.3,2.32,3.05,4.07,5.26,5.26,2.21,1.19,4.64,1.78,7.29,1.78,4.95,0,9.43-2.05,13.43-6.14v16.1Z"/><path class="cls-1" d="m1218.03,168.12l20.15-56.64h19.26l20.07,56.64h-16.99l-3.08-9.8h-19.26l-3.16,9.8h-16.99Zm29.79-43.62l-6.48,21.38h12.94l-6.46-21.38Z"/><path class="cls-1" d="m1282.04,168.12v-56.64h15.86v20.39h19.26v-20.39h15.87v56.64h-15.87v-22.66h-19.26v22.66h-15.86Z"/><path class="cls-1" d="m1367.01,149.43l-11.32,18.69h-18.14l20.72-29.77-18.69-26.87h19.01l8.42,15.29,8.42-15.29h17.98l-17.72,26.06,20.71,30.58h-18.69l-10.69-18.69Z"/><path class="cls-1" d="m1414.84,168.12v-22.01l-19.6-34.63h18.71l9.62,19.9,9.38-19.9h17.33l-19.6,34.63v22.01h-15.84Z"/><path class="cls-1" d="m1468.74,168.12v-22.01l-19.6-34.63h18.71l9.62,19.9,9.38-19.9h17.33l-19.6,34.63v22.01h-15.84Z"/><path class="cls-1" d="m1508.7,168.12v-56.64h33.98v13.59h-18.12v43.05h-15.86Z"/><path class="cls-1" d="m1548.93,111.48h15.29v33.98l21.93-33.98h15.55v56.64h-15.31v-33.98l-21.59,33.98h-15.86v-56.64Z"/><path class="cls-1" d="m1611.89,111.48h15.29v33.98l21.93-33.98h15.55v56.64h-15.31v-33.98l-21.59,33.98h-15.86v-56.64Zm11.01-12.15l9.23-3.4c.8,3.19,3.04,4.78,6.72,4.78s5.91-1.59,6.72-4.78l9.23,3.4c-1.34,3.08-3.45,5.35-6.32,6.8-2.86,1.51-6.07,2.27-9.62,2.27-3.78,0-7.07-.81-9.88-2.43-2.86-1.57-4.88-3.78-6.07-6.64Z"/><path class="cls-1" d="m1674.85,168.12v-56.64h15.86v20.39h19.26v-20.39h15.87v56.64h-15.87v-22.66h-19.26v22.66h-15.86Z"/><path class="cls-1" d="m483.63,265.22l8.26-56.64h15.87l9.96,34.55,9.96-34.55h15.84l8.26,56.64h-15.21l-4.21-32.85-9.54,32.85h-10.19l-9.56-32.85-4.21,32.85h-15.21Z"/><path class="cls-1" d="m566.5,230.67h18.14c-.38-2.16-1.22-4.1-2.51-5.83-1.36-1.67-3.06-3-5.1-3.97-2.11-.96-4.37-1.44-6.8-1.44s-4.92.45-7.29,1.36c-2.42.92-4.64,2.27-6.64,4.05v-13.91c1.57-.87,3.27-1.6,5.1-2.19,1.88-.59,3.75-1.05,5.59-1.38,1.83-.26,3.61-.39,5.34-.39,3.88,0,7.53.67,10.93,2.01,3.4,1.41,6.42,3.38,9.07,5.91,2.58,2.59,4.58,5.7,5.99,9.31,1.45,3.62,2.17,7.59,2.17,11.89,0,4.75-.72,9.07-2.17,12.96-1.51,3.83-3.56,7.07-6.14,9.7-2.65,2.65-5.67,4.68-9.07,6.09-3.4,1.34-7.01,2.01-10.85,2.01-6.1,0-11.41-1.3-15.94-3.89v-14.15c4.15,3.71,9.03,5.57,14.64,5.57,2.81,0,5.26-.54,7.37-1.62,2.05-1.13,3.67-2.64,4.86-4.52,1.19-1.9,1.86-3.98,2.02-6.24h-18.69v-11.32Z"/><path class="cls-1" d="m614.41,208.58h41.76v43.05h6.8v24.91h-13.59v-11.32h-32.7v11.32h-13.59v-24.91c1.78-.05,3.48-.57,5.1-1.54,1.67-.92,3.08-2.35,4.21-4.29,1.08-1.88,1.72-4.25,1.94-7.11.05-1.2.08-2.98.08-5.35v-24.75Zm14.58,13.59v13.43c0,2.7-.14,4.99-.42,6.88-.32,1.94-.91,3.66-1.78,5.18-.86,1.57-2.12,2.89-3.79,3.97h17.31v-29.46h-11.32Z"/><path class="cls-1" d="m677.14,230.67h18.14c-.38-2.16-1.22-4.1-2.51-5.83-1.36-1.67-3.06-3-5.1-3.97-2.11-.96-4.37-1.44-6.8-1.44s-4.92.45-7.29,1.36c-2.42.92-4.64,2.27-6.64,4.05v-13.91c1.57-.87,3.27-1.6,5.1-2.19,1.88-.59,3.75-1.05,5.59-1.38,1.83-.26,3.61-.39,5.34-.39,3.88,0,7.53.67,10.93,2.01,3.4,1.41,6.42,3.38,9.07,5.91,2.58,2.59,4.58,5.7,5.99,9.31,1.45,3.62,2.17,7.59,2.17,11.89,0,4.75-.72,9.07-2.17,12.96-1.51,3.83-3.56,7.07-6.14,9.7-2.65,2.65-5.67,4.68-9.07,6.09-3.4,1.34-7.01,2.01-10.85,2.01-6.1,0-11.41-1.3-15.94-3.89v-14.15c4.15,3.71,9.03,5.57,14.64,5.57,2.81,0,5.26-.54,7.37-1.62,2.05-1.13,3.67-2.64,4.86-4.52,1.19-1.9,1.86-3.98,2.02-6.24h-18.69v-11.32Z"/><path class="cls-1" d="m727.32,230.67h18.14c-.38-2.16-1.22-4.1-2.51-5.83-1.36-1.67-3.06-3-5.1-3.97-2.11-.96-4.37-1.44-6.8-1.44s-4.92.45-7.29,1.36c-2.42.92-4.64,2.27-6.64,4.05v-13.91c1.57-.87,3.27-1.6,5.1-2.19,1.88-.59,3.75-1.05,5.59-1.38,1.83-.26,3.61-.39,5.34-.39,3.88,0,7.53.67,10.93,2.01,3.4,1.41,6.42,3.38,9.07,5.91,2.58,2.59,4.58,5.7,5.99,9.31,1.45,3.62,2.17,7.59,2.17,11.89,0,4.75-.72,9.07-2.17,12.96-1.51,3.83-3.56,7.07-6.14,9.7-2.65,2.65-5.67,4.68-9.07,6.09-3.4,1.34-7.01,2.01-10.85,2.01-6.1,0-11.41-1.3-15.94-3.89v-14.15c4.15,3.71,9.03,5.57,14.64,5.57,2.81,0,5.26-.54,7.37-1.62,2.05-1.13,3.67-2.64,4.86-4.52,1.19-1.9,1.86-3.98,2.02-6.24h-18.69v-11.32Z"/><path class="cls-1" d="m775.23,208.58h43.07v56.64h-15.86v-43.05h-11.34v22.32c0,2.65-.16,5.08-.47,7.29-.38,2.27-1.22,4.5-2.51,6.72-1.36,2.16-3.44,3.94-6.24,5.33-2.86,1.41-6.63,2.11-11.32,2.11-2.49,0-4.7-.24-6.64-.73v-13.59c1.46.38,2.62.57,3.48.57,2.37,0,4.12-.51,5.26-1.54,1.13-1.03,1.86-2.4,2.19-4.13.26-1.67.39-3.91.39-6.72v-31.24Z"/><path class="cls-1" d="m834.72,208.58h43.07v56.64h-15.86v-43.05h-11.34v22.32c0,2.65-.16,5.08-.47,7.29-.38,2.27-1.22,4.5-2.51,6.72-1.36,2.16-3.44,3.94-6.24,5.33-2.86,1.41-6.63,2.11-11.32,2.11-2.49,0-4.7-.24-6.64-.73v-13.59c1.46.38,2.62.57,3.48.57,2.37,0,4.12-.51,5.26-1.54,1.13-1.03,1.86-2.4,2.19-4.13.26-1.67.39-3.91.39-6.72v-31.24Z"/><path class="cls-1" d="m887.98,208.58h15.29v33.98l21.93-33.98h15.55v56.64h-15.31v-33.98l-21.59,33.98h-15.86v-56.64Z"/><path class="cls-1" d="m950.94,208.58h15.29v33.98l21.93-33.98h15.55v56.64h-15.31v-33.98l-21.59,33.98h-15.86v-56.64Zm11.01-12.15l9.23-3.4c.8,3.19,3.04,4.78,6.72,4.78s5.91-1.59,6.72-4.78l9.23,3.4c-1.34,3.08-3.45,5.35-6.32,6.8-2.86,1.51-6.07,2.27-9.62,2.27-3.78,0-7.07-.81-9.88-2.43-2.86-1.57-4.88-3.78-6.07-6.64Z"/><path class="cls-1" d="m1013.91,265.22v-56.64h15.86v20.39h19.26v-20.39h15.87v56.64h-15.87v-22.66h-19.26v22.66h-15.86Z"/><path class="cls-1" d="m1111.42,265.22v-43.05h-12.45v-13.59h40.78v13.59h-12.47v43.05h-15.86Z"/><path class="cls-1" d="m1145.42,265.22v-56.64h33.98v13.59h-18.12v7.92h16.42v12.47h-16.42v9.07h18.12v13.59h-33.98Z"/><path class="cls-1" d="m1211.69,246.53l-11.32,18.69h-18.14l20.72-29.77-18.69-26.87h19.01l8.42,15.29,8.42-15.29h17.98l-17.72,26.06,20.71,30.58h-18.69l-10.69-18.69Z"/><path class="cls-1" d="m1245.59,265.22v-56.64h15.86v20.39h19.26v-20.39h15.87v56.64h-15.87v-22.66h-19.26v22.66h-15.86Z"/><path class="cls-1" d="m1334.69,266.84c-4.79,0-9.11-.78-12.94-2.35-3.83-1.57-7.05-3.75-9.64-6.56-2.58-2.75-4.55-5.93-5.91-9.54-1.29-3.61-1.94-7.44-1.94-11.5s.64-7.79,1.94-11.4c1.3-3.62,3.25-6.84,5.83-9.64,2.6-2.81,5.78-4.99,9.56-6.54,3.82-1.57,8.19-2.35,13.1-2.35s9.28.78,13.12,2.35c3.83,1.62,7.01,3.8,9.54,6.54,2.59,2.75,4.54,5.94,5.83,9.56,1.29,3.61,1.93,7.43,1.93,11.48s-.64,7.89-1.93,11.5c-1.29,3.61-3.23,6.79-5.83,9.54-2.6,2.75-5.78,4.91-9.54,6.48-3.83,1.62-8.21,2.43-13.12,2.43Zm0-13.59c2.21,0,4.4-.54,6.56-1.62,2.16-1.08,3.96-2.86,5.41-5.33,1.41-2.44,2.12-5.57,2.12-9.4s-.71-6.97-2.12-9.46c-1.45-2.42-3.25-4.17-5.41-5.26-2.16-1.08-4.35-1.62-6.56-1.62s-4.32.54-6.48,1.62c-2.2,1.08-4,2.86-5.41,5.33-1.46,2.44-2.19,5.56-2.19,9.38,0,5.56,1.46,9.66,4.39,12.31,2.91,2.7,6.14,4.05,9.7,4.05Z"/><path class="cls-1" d="m1379.02,208.58h43.07v56.64h-15.86v-43.05h-11.34v22.32c0,2.65-.16,5.08-.47,7.29-.38,2.27-1.22,4.5-2.51,6.72-1.36,2.16-3.44,3.94-6.24,5.33-2.86,1.41-6.63,2.11-11.32,2.11-2.49,0-4.7-.24-6.64-.73v-13.59c1.46.38,2.62.57,3.48.57,2.37,0,4.12-.51,5.26-1.54,1.13-1.03,1.86-2.4,2.19-4.13.26-1.67.39-3.91.39-6.72v-31.24Z"/><path class="cls-1" d="m1460.2,266.84c-4.79,0-9.11-.78-12.94-2.35-3.83-1.57-7.05-3.75-9.64-6.56-2.58-2.75-4.55-5.93-5.91-9.54-1.29-3.61-1.94-7.44-1.94-11.5s.64-7.79,1.94-11.4c1.3-3.62,3.25-6.84,5.83-9.64,2.6-2.81,5.78-4.99,9.56-6.54,3.82-1.57,8.19-2.35,13.1-2.35s9.28.78,13.12,2.35c3.83,1.62,7.01,3.8,9.54,6.54,2.59,2.75,4.54,5.94,5.83,9.56,1.29,3.61,1.93,7.43,1.93,11.48s-.64,7.89-1.93,11.5c-1.29,3.61-3.23,6.79-5.83,9.54-2.6,2.75-5.78,4.91-9.54,6.48-3.83,1.62-8.21,2.43-13.12,2.43Zm0-13.59c2.21,0,4.4-.54,6.56-1.62,2.16-1.08,3.96-2.86,5.41-5.33,1.41-2.44,2.12-5.57,2.12-9.4s-.71-6.97-2.12-9.46c-1.45-2.42-3.25-4.17-5.41-5.26-2.16-1.08-4.35-1.62-6.56-1.62s-4.32.54-6.48,1.62c-2.2,1.08-4,2.86-5.41,5.33-1.46,2.44-2.19,5.56-2.19,9.38,0,5.56,1.46,9.66,4.39,12.31,2.91,2.7,6.14,4.05,9.7,4.05Z"/><path class="cls-1" d="m1498.31,265.22v-56.64h33.98v13.59h-18.12v43.05h-15.86Z"/><path class="cls-1" d="m1538.53,208.58h15.29v33.98l21.93-33.98h15.55v56.64h-15.31v-33.98l-21.59,33.98h-15.86v-56.64Z"/><path class="cls-1" d="m1601.5,208.58h15.29v33.98l21.93-33.98h15.55v56.64h-15.31v-33.98l-21.59,33.98h-15.86v-56.64Zm11.01-12.15l9.23-3.4c.8,3.19,3.04,4.78,6.72,4.78s5.91-1.59,6.72-4.78l9.23,3.4c-1.34,3.08-3.45,5.35-6.32,6.8-2.86,1.51-6.07,2.27-9.62,2.27-3.78,0-7.07-.81-9.88-2.43-2.86-1.57-4.88-3.78-6.07-6.64Z"/><path class="cls-1" d="m1664.46,265.22v-56.64h15.86v20.39h19.26v-20.39h15.87v56.64h-15.87v-22.66h-19.26v22.66h-15.86Z"/><path class="cls-1" d="m1761.98,265.22v-43.05h-12.45v-13.59h40.78v13.59h-12.47v43.05h-15.86Z"/><path class="cls-1" d="m1823.9,266.84c-4.79,0-9.11-.78-12.94-2.35-3.83-1.57-7.05-3.75-9.64-6.56-2.58-2.75-4.55-5.93-5.91-9.54-1.29-3.61-1.94-7.44-1.94-11.5s.64-7.79,1.94-11.4c1.3-3.62,3.25-6.84,5.83-9.64,2.6-2.81,5.78-4.99,9.56-6.54,3.82-1.57,8.19-2.35,13.1-2.35s9.28.78,13.12,2.35c3.83,1.62,7.01,3.8,9.54,6.54,2.59,2.75,4.54,5.94,5.83,9.56,1.29,3.61,1.93,7.43,1.93,11.48s-.64,7.89-1.93,11.5c-1.29,3.61-3.23,6.79-5.83,9.54-2.6,2.75-5.78,4.91-9.54,6.48-3.83,1.62-8.21,2.43-13.12,2.43Zm13.43-24.28h-26.87c.64,2.81,1.89,5.02,3.73,6.64,2.91,2.7,6.14,4.05,9.7,4.05,2.21,0,4.4-.54,6.56-1.62,2.16-1.08,3.96-2.86,5.41-5.33.66-1.08,1.15-2.32,1.46-3.73Zm-.73-13.59c-.21-.54-.45-1.05-.73-1.54-1.45-2.42-3.25-4.17-5.41-5.26-2.16-1.08-4.35-1.62-6.56-1.62s-4.32.54-6.48,1.62c-2.2,1.08-4,2.86-5.41,5.33-.07.18-.23.43-.49.74-.26.31-.39.5-.39.56,0,.11.05.16.16.16h25.33Z"/><path class="cls-1" d="m1862.01,208.58h27.44c4.53,0,8.06.78,10.59,2.35,2.49,1.55,4.16,3.41,5.02,5.57.87,2.16,1.3,4.32,1.3,6.48,0,2.81-.84,5.24-2.51,7.29-1.67,2.09-3.78,3.6-6.32,4.52v.16c2.86.7,5.58,2.15,8.18,4.37,2.53,2.21,3.79,5.58,3.79,10.12,0,2.7-.65,5.24-1.94,7.61-1.24,2.44-3.26,4.4-6.07,5.91-2.75,1.51-6.26,2.27-10.53,2.27h-28.96v-56.64Zm15.86,22.32h6.64c4.85,0,7.27-1.78,7.27-5.33,0-1.67-.57-3.02-1.7-4.05-1.19-1.08-3.04-1.62-5.57-1.62h-6.64v11Zm0,23h7.29c5.66,0,8.5-2,8.5-6.01,0-3.77-2.83-5.65-8.5-5.65h-7.29v11.66Z"/><path class="cls-1" d="m478.19,365.63v-1.38l5.53-1.38v-59l-5.53-1.38v-1.38h26.27v1.38l-5.53,1.38v59l5.53,1.38v1.38h-26.27Z"/><path class="cls-1" d="m524.01,364.06c-1.72-.86-3.17-1.87-4.33-3.04-.86,1.41-1.94,2.67-3.23,3.78-1.11.8-1.72,1.23-1.84,1.29h-2.3v-17.52h3.69c.92,3.01,2.21,5.72,3.87,8.11,3.75,5.35,8.6,8.02,14.57,8.02,3.5,0,6.3-1.04,8.39-3.13,2.09-2.09,3.13-4.89,3.13-8.39,0-2.03-.6-3.84-1.8-5.44-1.2-1.6-2.69-3.01-4.47-4.24-1.78-1.23-4.27-2.77-7.47-4.61-4.06-2.27-7.35-4.33-9.86-6.18-2.52-1.84-4.67-4.16-6.45-6.96-1.78-2.8-2.67-6.1-2.67-9.91,0-3.01.84-5.73,2.54-8.16,1.69-2.43,4.22-4.36,7.61-5.81,3.38-1.44,7.53-2.17,12.45-2.17,3.56,0,7.13,1.01,10.69,3.04,1.35.74,2.7,1.72,4.06,2.95,1.04-1.6,2.12-2.86,3.23-3.78,1.11-.8,1.72-1.23,1.84-1.29h2.3v17.52h-3.69c-.8-2.95-2-5.62-3.6-8.02-1.48-2.33-3.3-4.27-5.49-5.81-2.18-1.54-4.69-2.31-7.51-2.31-2.4,0-4.46.95-6.18,2.86-1.72,1.91-2.58,4.33-2.58,7.28,0,2.28.66,4.32,1.98,6.13,1.32,1.81,2.95,3.4,4.89,4.75,1.94,1.35,4.56,2.98,7.88,4.89,3.87,2.21,7.01,4.18,9.4,5.9,2.4,1.72,4.43,3.86,6.08,6.41,1.66,2.55,2.49,5.49,2.49,8.8s-.95,6.35-2.86,9.08c-1.91,2.74-4.76,4.9-8.57,6.5-3.81,1.6-8.45,2.4-13.92,2.4-4.36,0-8.45-.98-12.26-2.95Z"/><path class="cls-1" d="m582.23,363.09c-4.52-2.61-8.01-6.44-10.46-11.48-2.46-5.04-3.69-11.12-3.69-18.25s1.23-13.21,3.69-18.25c2.46-5.04,5.95-8.86,10.46-11.48,4.52-2.61,9.79-3.92,15.81-3.92s11.29,1.31,15.81,3.92c4.52,2.61,8,6.44,10.46,11.48,2.46,5.04,3.69,11.12,3.69,18.25s-1.23,13.21-3.69,18.25c-2.46,5.04-5.95,8.87-10.46,11.48-4.52,2.61-9.79,3.92-15.81,3.92s-11.29-1.31-15.81-3.92Zm22.49-.97c2.06-2.03,3.76-5.41,5.12-10.14,1.35-4.73,2.03-10.94,2.03-18.62s-.68-13.89-2.03-18.62c-1.35-4.73-3.06-8.11-5.12-10.14-2.06-2.03-4.29-3.04-6.68-3.04s-4.63,1.01-6.68,3.04c-2.06,2.03-3.77,5.41-5.12,10.14-1.35,4.73-2.03,10.94-2.03,18.62s.68,13.89,2.03,18.62c1.35,4.73,3.06,8.11,5.12,10.14,2.06,2.03,4.29,3.04,6.68,3.04s4.62-1.01,6.68-3.04Z"/><path class="cls-1" d="m628,367.01l29.02-67.3h3.79l-29.02,67.3h-3.79Z"/><path class="cls-1" d="m669.03,365.63v-1.38l5.53-1.38v-59l-5.53-1.38v-1.38h26.27v1.38l-5.53,1.38v59l5.53,1.38v1.38h-26.27Z"/><path class="cls-1" d="m703.6,364.25l5.53-1.38v-59l-5.53-1.38v-1.38h49.32v16.59h-2.77c-1.17-.92-2.18-2.09-3.04-3.5-1.97-3.32-2.95-6.91-2.95-10.79h-19.82v29.04h10.6c.43-2.33,1.23-4.52,2.4-6.55.49-.92,1.07-1.81,1.75-2.67h2.77v20.74h-2.77c-.68-.86-1.26-1.75-1.75-2.67-1.17-2.03-1.97-4.21-2.4-6.55h-10.6v28.58h21.66c0-3.87.98-7.47,2.95-10.79.86-1.41,1.87-2.58,3.04-3.5h2.77v16.59h-51.17v-1.38Z"/><path class="cls-1" d="m769.98,358.25c-5.53-5.84-8.3-14.14-8.3-24.89,0-7.07,1.21-13.14,3.64-18.21,2.43-5.07,5.84-8.91,10.23-11.52,4.39-2.61,9.48-3.92,15.26-3.92,3.5,0,7.04,1.01,10.6,3.04,1.35.74,2.7,1.72,4.06,2.95,1.04-1.6,2.12-2.86,3.23-3.78,1.11-.8,1.72-1.23,1.84-1.29h2.31v17.52h-3.69c-.8-2.95-2-5.62-3.6-8.02-1.48-2.33-3.3-4.27-5.49-5.81-2.18-1.54-4.69-2.31-7.51-2.31-4.24,0-7.76,2.46-10.56,7.38-2.8,4.92-4.19,12.91-4.19,23.97s1.52,19.28,4.56,24.11c3.04,4.83,7.21,7.24,12.49,7.24,2.89,0,5.64-.81,8.25-2.44,2.61-1.63,4.73-3.79,6.36-6.5,1.63-2.7,2.44-5.56,2.44-8.57h2.31c0,3.5-.94,6.78-2.81,9.82-1.88,3.04-4.42,5.47-7.65,7.28-3.23,1.81-6.81,2.72-10.74,2.72-9.83,0-17.52-2.92-23.05-8.76Z"/><path class="cls-1" d="m846.03,361.48c0-3.63.72-6.93,2.17-9.91,1.44-2.98,3.21-5.58,5.3-7.79,2.09-2.21,4.82-4.82,8.2-7.84,3.13-2.77,5.59-5.09,7.38-6.96,1.78-1.87,3.29-3.99,4.52-6.36,1.23-2.37,1.84-4.93,1.84-7.7,0-4.06-.98-7.22-2.95-9.5-1.97-2.27-4.52-3.41-7.65-3.41-1.78,0-3.6.25-5.44.74l-1.94.65v14.75l-1.2.28c-.98.12-1.81.18-2.49.18-2.09,0-3.77-.63-5.02-1.89-1.26-1.26-1.89-2.93-1.89-5.02,0-1.97.75-3.87,2.26-5.72,1.51-1.84,3.75-3.35,6.73-4.52,2.98-1.17,6.59-1.75,10.83-1.75,8.3,0,14.44,1.66,18.44,4.98,3.99,3.32,5.99,7.96,5.99,13.92,0,3.75-.97,6.98-2.9,9.68-1.94,2.71-4.3,4.95-7.1,6.73-2.8,1.78-6.53,3.81-11.2,6.08-3.93,1.91-7.11,3.58-9.54,5.02-2.43,1.44-4.67,3.18-6.73,5.21-2.06,2.03-3.52,4.33-4.38,6.91h34.11c.43-3.32,1.47-6.08,3.13-8.3.68-1.04,1.47-1.97,2.4-2.77h2.77v18.44h-45.63v-4.15Z"/><path class="cls-1" d="m912.18,349.45c1.69-4.7,3.73-8.73,6.13-12.08,2.4-3.35,5.53-7.15,9.4-11.39,3.38-3.69,6.04-6.84,7.97-9.45,1.94-2.61,3.4-5.45,4.38-8.53h-32.73c-.43,3.32-1.47,6.08-3.13,8.3-.68,1.05-1.47,1.97-2.4,2.77h-2.77v-17.98h43.79v4.15c0,3.44-.54,6.64-1.61,9.59-1.08,2.95-2.75,6.76-5.02,11.43-2.21,4.36-4.01,8.24-5.39,11.62-1.38,3.38-2.57,7.42-3.55,12.12-.98,4.7-1.48,9.91-1.48,15.63h-16.13c0-6.08.84-11.48,2.54-16.18Z"/><path class="cls-1" d="m960.63,363.05c-4.06-2.64-7.27-6.5-9.63-11.57-2.37-5.07-3.55-11.11-3.55-18.12s1.18-13.05,3.55-18.12c2.37-5.07,5.58-8.93,9.63-11.57,4.06-2.64,8.57-3.96,13.55-3.96s9.5,1.32,13.55,3.96c4.06,2.64,7.27,6.5,9.63,11.57,2.37,5.07,3.55,11.11,3.55,18.12s-1.18,13.04-3.55,18.12c-2.37,5.07-5.58,8.93-9.63,11.57-4.06,2.64-8.57,3.96-13.55,3.96s-9.5-1.32-13.55-3.96Zm24.15-29.69c0-21.2-3.53-31.81-10.6-31.81s-10.6,10.6-10.6,31.81,3.53,31.81,10.6,31.81,10.6-10.6,10.6-31.81Z"/><path class="cls-1" d="m1022.4,363.05c-4.06-2.64-7.27-6.5-9.63-11.57-2.37-5.07-3.55-11.11-3.55-18.12s1.18-13.05,3.55-18.12c2.37-5.07,5.58-8.93,9.63-11.57,4.06-2.64,8.57-3.96,13.55-3.96s9.5,1.32,13.55,3.96c4.06,2.64,7.27,6.5,9.63,11.57,2.37,5.07,3.55,11.11,3.55,18.12s-1.18,13.04-3.55,18.12c-2.37,5.07-5.58,8.93-9.63,11.57-4.06,2.64-8.57,3.96-13.55,3.96s-9.5-1.32-13.55-3.96Zm24.15-29.69c0-21.2-3.53-31.81-10.6-31.81s-10.6,10.6-10.6,31.81,3.53,31.81,10.6,31.81,10.6-10.6,10.6-31.81Z"/><path class="cls-1" d="m1073.29,365.63v-1.38l6.45-1.84v-50.61l-9.68,6.82-1.84-2.31,16.78-15.21h9.96v61.31l6.45,1.84v1.38h-28.12Z"/><path class="cls-1" d="m1111.31,330.37c-1.38-1.38-2.07-3-2.07-4.84s.69-3.46,2.07-4.84c1.38-1.38,3-2.07,4.84-2.07s3.46.69,4.84,2.07,2.07,3,2.07,4.84-.69,3.46-2.07,4.84c-1.38,1.38-3,2.07-4.84,2.07s-3.46-.69-4.84-2.07Zm0,34.11c-1.38-1.38-2.07-3-2.07-4.84s.69-3.46,2.07-4.84c1.38-1.38,3-2.07,4.84-2.07s3.46.69,4.84,2.07,2.07,3,2.07,4.84-.69,3.46-2.07,4.84c-1.38,1.38-3,2.07-4.84,2.07s-3.46-.69-4.84-2.07Z"/><path class="cls-1" d="m1129.98,361.48c0-3.63.72-6.93,2.17-9.91,1.44-2.98,3.21-5.58,5.3-7.79,2.09-2.21,4.82-4.82,8.2-7.84,3.13-2.77,5.59-5.09,7.38-6.96,1.78-1.87,3.29-3.99,4.52-6.36,1.23-2.37,1.84-4.93,1.84-7.7,0-4.06-.98-7.22-2.95-9.5-1.97-2.27-4.52-3.41-7.65-3.41-1.78,0-3.6.25-5.44.74l-1.94.65v14.75l-1.2.28c-.98.12-1.81.18-2.49.18-2.09,0-3.77-.63-5.02-1.89-1.26-1.26-1.89-2.93-1.89-5.02,0-1.97.75-3.87,2.26-5.72,1.51-1.84,3.75-3.35,6.73-4.52,2.98-1.17,6.59-1.75,10.83-1.75,8.3,0,14.44,1.66,18.44,4.98,3.99,3.32,5.99,7.96,5.99,13.92,0,3.75-.97,6.98-2.9,9.68-1.94,2.71-4.3,4.95-7.1,6.73-2.8,1.78-6.53,3.81-11.2,6.08-3.93,1.91-7.11,3.58-9.54,5.02-2.43,1.44-4.67,3.18-6.73,5.21-2.06,2.03-3.52,4.33-4.38,6.91h34.11c.43-3.32,1.47-6.08,3.13-8.3.68-1.04,1.47-1.97,2.4-2.77h2.77v18.44h-45.63v-4.15Z"/><path class="cls-1" d="m1197.56,363.05c-4.06-2.64-7.27-6.5-9.63-11.57-2.37-5.07-3.55-11.11-3.55-18.12s1.18-13.05,3.55-18.12c2.37-5.07,5.58-8.93,9.63-11.57,4.06-2.64,8.57-3.96,13.55-3.96s9.5,1.32,13.55,3.96c4.06,2.64,7.27,6.5,9.63,11.57,2.37,5.07,3.55,11.11,3.55,18.12s-1.18,13.04-3.55,18.12c-2.37,5.07-5.58,8.93-9.63,11.57-4.06,2.64-8.57,3.96-13.55,3.96s-9.5-1.32-13.55-3.96Zm24.15-29.69c0-21.2-3.53-31.81-10.6-31.81s-10.6,10.6-10.6,31.81,3.53,31.81,10.6,31.81,10.6-10.6,10.6-31.81Z"/><path class="cls-1" d="m1248.45,365.63v-1.38l6.45-1.84v-50.61l-9.68,6.82-1.84-2.31,16.78-15.21h9.96v61.31l6.45,1.84v1.38h-28.12Z"/><path class="cls-1" d="m1289.71,365.26c-2.98-1.17-5.22-2.67-6.73-4.52-1.51-1.84-2.26-3.75-2.26-5.72,0-2.09.63-3.76,1.89-5.02,1.26-1.26,2.93-1.89,5.02-1.89.49,0,.98.05,1.47.14.49.09.83.14,1.01.14l1.2.18v14.75c.06,0,.71.25,1.94.74,1.6.43,3.41.65,5.44.65,4.3,0,7.61-1.3,9.91-3.92,2.31-2.61,3.46-6.53,3.46-11.75s-1.12-9.37-3.36-12.08c-2.24-2.7-5.27-4.06-9.08-4.06h-4.61v-2.3h4.61c2.77,0,5.07-1.23,6.91-3.69,1.84-2.46,2.77-5.99,2.77-10.6s-.95-8.14-2.86-10.6c-1.91-2.46-4.33-3.69-7.28-3.69-1.6,0-3.13.25-4.61.74-.18.06-.8.28-1.84.65v14.75l-1.2.28c-.98.12-1.81.18-2.49.18-2.09,0-3.77-.63-5.02-1.89-1.26-1.26-1.89-2.93-1.89-5.02,0-1.9.74-3.78,2.21-5.62,1.47-1.84,3.64-3.37,6.5-4.56,2.86-1.2,6.25-1.8,10.19-1.8,5.16,0,9.54.75,13.14,2.26,3.6,1.51,6.3,3.52,8.11,6.04,1.81,2.52,2.72,5.29,2.72,8.3,0,3.5-.89,6.28-2.67,8.34-1.78,2.06-4.12,3.7-7.01,4.93-2.83,1.11-6.05,1.75-9.68,1.94v.46c4.06.18,7.74.89,11.06,2.12,7.38,2.95,11.06,7.93,11.06,14.94,0,5.41-2.23,9.76-6.68,13.05-4.46,3.29-11.29,4.93-20.51,4.93-4.24,0-7.85-.58-10.83-1.75Z"/></svg>