<?xml version="1.0" encoding="UTF-8"?><svg id="Layer_1" xmlns="http://www.w3.org/2000/svg" viewBox="0 0 380 435"><defs><style>.cls-1,.cls-2{fill:#fff;stroke-width:0px;}.cls-2{fill-rule:evenodd;}</style></defs><path class="cls-2" d="m215.35,309.5c-.21-.89-.34-1.81-.35-2.76-.02-2.5.73-4.83,2.02-6.76l-1.22-.71-14.76,14.63,14.3-4.4Z"/><path class="cls-2" d="m226.93,294.64c6.63-.05,12.06,5.29,12.11,11.93.05,6.65-5.29,12.07-11.92,12.12-.5,0-.99-.03-1.48-.09l-15.07,38.68c2.04.86,3.48,2.87,3.5,5.22,0,3.17-2.53,5.74-5.69,5.77-1.87.01-3.53-.89-4.58-2.28l-27.15,11.92c1.06,4,.25,8.47-2.59,11.89-4.68,5.58-12.92,6.32-18.46,1.66-1.25-1.06-2.23-2.32-2.98-3.67l-13.83,12.35c1.52,2.35,1.94,5.38.83,8.17-1.83,4.56-6.97,6.77-11.51,4.94-3.68-1.49-5.79-5.2-5.49-8.99l-34.68-4.22c-2.79,4.16-8.34,5.51-12.71,2.95-4.55-2.67-6.07-8.5-3.4-13.05.44-.75.99-1.39,1.59-1.97l-26.19-32.73c-.97.26-2.03.15-2.96-.4-1.83-1.07-2.45-3.44-1.38-5.28.27-.46.62-.84,1.02-1.14l-9.1-52.34,11.74,51.6c.56.05,1.11.2,1.62.5,1.84,1.08,2.45,3.45,1.37,5.29-.03.06-.08.1-.11.16l24.41,33.96c3-2.59,7.41-3.16,11.03-1.04,3.13,1.84,4.78,5.19,4.66,8.58l33.21,8.1c.11-.53.24-1.05.45-1.57,1.8-4.56,6.96-6.77,11.5-4.91.89.36,1.67.88,2.37,1.47l15.24-10.98c-2.24-4.55-1.76-10.19,1.69-14.34,4.63-5.59,12.9-6.33,18.43-1.64,1.1.91,2,1.98,2.71,3.14l28.25-9.03c-.47-.82-.76-1.76-.76-2.77-.01-.95.24-1.83.64-2.62l-33.16-15.39-22.97,22.78c-9.36,6.74-20.84,10.71-33.25,10.71-31.45,0-56.95-25.5-56.95-56.95s25.5-56.95,56.95-56.95c11.57,0,22.33,3.45,31.31,9.38l40.68-40.68c-19.62-16.03-44.68-25.64-72-25.64C50.99,207.21,0,258.2,0,321.1s50.99,113.9,113.9,113.9c28.16,0,53.93-10.23,73.81-27.16l80.46-79.63-40.6-40.6-11.04,10.95,1.03.7c2.18-2.79,5.56-4.59,9.38-4.62Z"/><path class="cls-2" d="m203.76,359.16c1.03-1.4,2.67-2.33,4.55-2.33.61,0,1.19.11,1.74.28l12.22-39.41c-3.01-1.3-5.38-3.78-6.52-6.88l-20.95,9.27-20.76,20.58,29.72,18.49Z"/><path class="cls-2" d="m167.32,332.26c-.07,1.32-.31,2.59-.71,3.79l2.79,1.74,11.75-11.65-13.83,6.12Z"/><path class="cls-2" d="m266.1,207.21c-28.16,0-53.93,10.23-73.81,27.16l-80.46,79.62,40.6,40.6,12.53-12.42-1.64-.76c-2.54,2.59-6.07,4.21-9.97,4.24-7.81.05-14.16-6.2-14.22-14.01-.06-7.78,6.21-14.15,14-14.2,1.03,0,2.03.1,3,.3l14.61-39.99c-2.07-.85-3.54-2.88-3.56-5.26-.03-3.15,2.52-5.73,5.68-5.75,2.15-.02,4.01,1.18,5,2.94l26.69-16.45c-1.36-5.12,1.41-10.47,6.47-12.2,5.29-1.8,11.05,1.04,12.84,6.34.43,1.25.58,2.51.52,3.75l47.48-8.16c.27-1.52,1.43-2.8,3.03-3.12,2.08-.43,4.12.93,4.55,3.01.1.52.1,1.04,0,1.53l35.18,27.76c1.12-1.22,2.6-2.12,4.35-2.48.37-.08.74-.09,1.11-.11l1.21-23.3s-.08,0-.11,0c-2.13-.17-3.71-2.04-3.53-4.17.17-2.12,2.04-3.71,4.16-3.53,2.12.16,3.7,2.03,3.53,4.15-.16,1.95-1.74,3.42-3.64,3.53l1.33,23.67c2.71.87,4.91,3.1,5.51,6.09.44,2.19-.04,4.34-1.17,6.07l16.03,15.27c1.33-.65,2.89-.84,4.41-.37,3.15.98,4.9,4.3,3.92,7.43-.6,1.92-2.11,3.32-3.91,3.9l-20.8,52.26,15.77-52.93c-2.19-1.4-3.29-4.12-2.46-6.73.19-.62.5-1.16.85-1.66l-14.2-16.68c-1.15,1.5-2.8,2.62-4.79,3.03-4.41.89-8.68-1.94-9.58-6.35-.51-2.5.22-4.93,1.73-6.76l-36.39-25.78c-.45.34-.96.59-1.54.71-1.55.31-3.07-.36-3.93-1.58l-48.14,5.73c-.36,3.84-2.91,7.31-6.81,8.62-3.76,1.29-7.76.18-10.41-2.48l-28.92,12.66c.25.63.41,1.32.41,2.04,0,.11-.02.21-.03.31l33.44,22.78,20.82-20.64c9.36-6.74,20.84-10.71,33.25-10.71,31.45,0,56.95,25.5,56.95,56.95s-25.5,56.95-56.95,56.95c-11.57,0-22.33-3.45-31.31-9.38l-40.68,40.68c19.62,16.03,44.69,25.64,72,25.64,62.9,0,113.9-50.99,113.9-113.9s-50.99-113.9-113.9-113.9Z"/><path class="cls-2" d="m176.82,276.6c-1.01.97-2.37,1.57-3.88,1.59-.62,0-1.2-.12-1.76-.29l-11.76,40.99c2.63,1.29,4.8,3.36,6.2,5.92l24.45-7.52,20.96-20.78-34.21-19.9Z"/><path class="cls-1" d="m190,185.82c-24.05,0-45.76-9.95-61.28-25.95,6.7,27.66,31.56,48.23,61.28,48.23s54.58-20.57,61.28-48.23c-15.52,16-37.23,25.95-61.28,25.95Z"/><circle class="cls-1" cx="190" cy="130.13" r="44.56" transform="translate(-35.2 81.96) rotate(-22.33)"/><path class="cls-1" d="m212.28,55.87c0-9.05-5.57-11.53-5.57-16.71,0-3.65,7.31-9.28-3.71-16.71,4.33,7.66-5.57,10.29-5.57,18.57,0,5.11,7.43,6.03,7.43,11.14,0,7.27-13,8.28-13-3.71s7.43-18.86,7.43-25.99c0-10.21-15.2-10.1-11.14-22.28-8.7,6.96,0,14.54,0,18.57s-5.57,9.05-5.57,13c0,5.45,5.57,7.19,5.57,16.71,0,11.99-13,10.98-13,3.71,0-5.11,7.43-6.03,7.43-11.14,0-8.28-9.9-10.91-5.57-18.57-11.02,7.43-3.71,13.05-3.71,16.71,0,5.18-5.57,7.66-5.57,16.71,0,12.3,9.97,18.57,22.28,18.57s22.28-6.26,22.28-18.57"/></svg>